<?xml version="1.0" encoding="utf-8"?>
<!-- Generator: Adobe Adobe Illustrator 29.2.0, SVG Export Plug-In . SVG Version: 6.00 Build 0)  -->
<svg version="1.1" xmlns="http://www.w3.org/2000/svg" xmlns:xlink="http://www.w3.org/1999/xlink" x="0px" y="0px"
	 viewBox="0 0 178.5 174" style="enable-background:new 0 0 178.5 174;" xml:space="preserve">
<style type="text/css">
	.st0{fill:#FFFFFF;}
	.st1{fill:url(#SVGID_1_);}
	.st2{fill:#282625;}
	.st3{fill:#177CFF;}
	.st4{fill:#1C450A;}
	.st5{fill:url(#SVGID_00000165915602348484923830000012205020326694834830_);}
	.st6{fill:url(#SVGID_00000150786369070260081030000003416999330667627661_);}
	.st7{fill:url(#SVGID_00000004534960053123429300000005191072185223215757_);}
	.st8{fill:url(#SVGID_00000171716956906597910480000005484441164138878385_);}
	.st9{fill:url(#SVGID_00000020362532165236768930000012912124502516508292_);}
	.st10{fill:url(#SVGID_00000085208918448948868440000014228434854356763038_);}
	.st11{fill:url(#SVGID_00000138549981244846482050000002053100654692495758_);}
	.st12{opacity:0.3;fill:url(#SVGID_00000015329451149495003410000007634584230499953829_);}
	.st13{opacity:0.3;}
	.st14{fill:url(#SVGID_00000175296835071786661640000015474781007424685232_);}
	.st15{fill:url(#SVGID_00000109030476884205528100000012666835274386991540_);}
	.st16{fill:url(#SVGID_00000014605492269590924110000015002708122358151357_);}
	.st17{fill:url(#SVGID_00000074441491808946429930000003502134992995112125_);}
	.st18{fill:url(#SVGID_00000139987171507984497950000001090221791335591808_);}
	.st19{fill:url(#SVGID_00000137851431659776794540000004224034958958342840_);}
	.st20{fill:url(#SVGID_00000009571482459270027950000004717916218867193001_);}
	.st21{fill:url(#SVGID_00000144311706348734216370000003789909097584231562_);}
	.st22{fill:url(#SVGID_00000040571208765570042430000014224823873987784325_);}
	.st23{fill:url(#SVGID_00000081625072268935394000000014281112135042517439_);}
	.st24{fill:url(#SVGID_00000032650490226927690790000014555346251664082347_);}
	.st25{fill:url(#SVGID_00000109713527356921113010000007791898312006612657_);}
	.st26{fill:url(#SVGID_00000101822952616415662970000014751653059642097328_);}
	.st27{fill:url(#SVGID_00000044178488172678340340000006339435724951400606_);}
	.st28{fill:url(#SVGID_00000116929458691245132440000016895467073692771484_);}
	.st29{fill:url(#SVGID_00000129926066510977099870000017770503879740890496_);}
	.st30{fill:url(#SVGID_00000165233569138960891700000000899372913969273236_);}
	.st31{fill:url(#SVGID_00000033346214044439662740000002127101631949197955_);}
	.st32{fill:url(#SVGID_00000134957844342913948100000016939116040715566781_);}
	.st33{fill:url(#SVGID_00000099656288473349045690000003425905212182070714_);}
	.st34{fill:url(#SVGID_00000039128052287728027950000007331305868104742591_);}
</style>
<g id="BACKGROUND">
</g>
<g id="OBJECTS">
	<g>
		<path class="st0" d="M106.98,93.91c-1,0-1.49,0.8-1.76,1.23c-0.07,0.12-0.19,0.3-0.26,0.39c-0.08,0.04-0.26,0.1-0.38,0.14
			c-0.15,0.05-0.36,0.12-0.59,0.23c0-0.36-0.03-0.74-0.07-1.14c-0.05-0.47-0.11-0.92-0.18-1.37c-0.12-0.84-0.29-2.08-0.17-2.52
			c1.32-0.88,4.17-3.76,5.17-6.39c0.74-1.95,0.81-3.27,0.21-4.13c-0.35-0.51-0.91-0.81-1.52-0.81c-0.27,0-0.54,0.06-0.8,0.17
			c-0.11,0.05-0.26,0.12-0.43,0.2c-0.19,0.09-0.58,0.29-0.9,0.41c-0.03-0.05-0.06-0.11-0.09-0.15c-0.42-0.76-0.99-1.8-2.07-2.54
			c-0.96-0.65-1.12-1.02-1.56-2.31c-0.39-1.12-0.91-1.71-1.33-2.19c-0.23-0.27-0.44-0.5-0.63-0.84c-0.13-0.22-0.27-0.53-0.41-0.85
			c-0.51-1.14-1.22-2.7-2.83-2.7c-0.35,0-0.7,0.09-1.04,0.25c-0.2,0.1-0.47,0.21-0.67,0.21c-0.2,0-0.48-0.14-0.94-0.38
			c-0.33-0.17-0.71-0.37-1.17-0.56c-0.4-0.16-0.76-0.24-1.1-0.24c-0.75,0-1.33,0.32-1.73,0.96c-0.25-0.11-0.46-0.22-0.67-0.32
			c-0.4-0.2-0.78-0.39-1.29-0.56c0.02-0.11,0.03-0.23,0.03-0.36c0.01-0.78-0.39-1.46-1.08-1.85c-0.38-0.22-0.83-0.32-1.37-0.32
			c-1.18,0-2.78,0.53-4.06,0.96c-0.39,0.13-0.79,0.26-1.04,0.33c-0.03-0.02-0.06-0.04-0.08-0.06c-0.28-0.2-0.74-0.54-1.4-0.54
			c-0.36,0-0.91,0.11-1.42,0.62c-0.09,0.09-0.3,0.26-0.5,0.42c-0.84,0.67-2.09,1.65-2.26,3.05c-0.04,0.02-0.07,0.03-0.11,0.05
			c-0.41,0.18-1.04,0.45-1.82,0.92c-1.74,1.07-2.74,3.09-2.76,5.56c-0.02,0.1-0.16,0.58-1,1.85l-0.03,0.04
			c-0.75,1.13-0.22,2.68,1.36,3.95c0.09,0.07,0.16,0.26,0.28,0.58c0.22,0.62,0.56,1.55,1.6,2.25c0.35,0.24,0.6,0.48,0.82,0.69
			c0.4,0.38,0.95,0.91,1.8,0.91c0.28,0,0.56-0.06,0.83-0.18c0.44-0.2,0.92-0.32,1.22-0.32c0.05,0,0.08,0,0.1,0.01
			c0.32,0.19,0.68,0.28,1.07,0.28c0.79,0,1.54-0.4,2.27-0.78c0.23-0.12,0.56-0.3,0.8-0.4c0.08,0.07,0.17,0.15,0.26,0.24
			c0.4,0.38,0.98,0.92,1.9,1.11c-0.82,1.82,0.03,3.08,0.9,3.81c0.43,0.36,0.45,0.4,0.77,1.15c0.05,0.12,0.11,0.25,0.17,0.39
			c0.17,0.37,0.2,0.73,0.23,1.14c0.03,0.42,0.07,0.88,0.28,1.35c-0.04,0.05-0.1,0.13-0.18,0.22c-0.73,0.8-1.35,2.24-0.16,4.5
			c0.16,0.31,0.32,0.59,0.46,0.83c0.4,0.69,0.53,0.94,0.53,1.28c0,1.59,0.64,2.59,1.19,3.29c0.05,0.06,0.11,0.13,0.17,0.21
			c0.2,0.24,0.64,0.78,0.78,1.08c-0.12,0.68,0.03,1.35,0.43,1.86c0.43,0.56,1.1,0.88,1.85,0.88c0.3,0,0.62-0.05,0.94-0.15
			c0.12-0.04,0.36-0.04,0.61-0.04c0.79-0.01,1.99-0.03,3.39-1.03c1.75-1.26,3.21-2.43,3.33-3.95c0.01-0.07,0.15-0.19,0.37-0.26
			c0.64-0.21,1.13-0.68,1.37-1.31c0.3-0.8,0.15-1.63-0.08-2.27c0.17-0.06,0.36-0.12,0.53-0.17l0.13-0.04
			c0.48-0.15,0.89-0.34,1.23-0.56c0,0.04,0,0.08,0,0.11c0,0,0,0.01-0.01,0.01c-0.46,0.65-1.26,2.52-0.64,3.82
			c0.3,0.64,0.9,1.05,1.6,1.1c0.09,0.01,0.17,0.01,0.26,0.01c0,0,0,0,0,0c2.02,0,2.82-1.68,3.82-3.81l0.12-0.26
			c1.22-2.58,1.76-4.31,0.93-5.55C108.1,94.21,107.56,93.91,106.98,93.91z"/>
		<linearGradient id="SVGID_1_" gradientUnits="userSpaceOnUse" x1="103.3745" y1="98.6785" x2="116.3956" y2="103.2027">
			<stop  offset="0" style="stop-color:#24221D"/>
			<stop  offset="1" style="stop-color:#F06200"/>
		</linearGradient>
		<path class="st1" d="M103.55,103.04c1.2,0.09,1.66-0.98,2.7-3.19c1.04-2.21,1.41-3.5,1.04-4.05c-0.37-0.55-0.61,0.55-1.23,1.1
			c-0.61,0.55-2.09,0.43-2.09,1.53c0,1.1,0.18,1.47-0.25,2.09C103.3,101.14,102.75,102.98,103.55,103.04z"/>
		<path class="st2" d="M102.03,91.91c-2.34,1.17-4.89,1.76-7.56,1.76c-1.47,0-2.98-0.18-4.51-0.54c-1.35-0.32-2.54-0.74-3.51-1.14
			c0.41,1.04,0.2,1.91,0.49,2.44c0.31,0.55,0.12,1.1-0.49,1.78c-0.61,0.67-0.55,1.59,0.06,2.76c0.61,1.17,1.17,1.78,1.17,2.82
			c0,1.04,0.37,1.72,0.86,2.33c0.49,0.61,1.47,1.72,1.29,2.39c-0.18,0.68,0.25,1.29,1.23,0.98c0.98-0.31,2.02,0.25,3.56-0.86
			c1.53-1.1,2.64-2.02,2.7-2.82c0.06-0.8,0.67-1.35,1.41-1.6c0.74-0.25,0.55-1.35,0.06-2.21c-0.49-0.86,0.37-1.1,1.9-1.6
			c1.53-0.49,1.96-1.23,1.72-3.5C102.28,93.87,102.09,92.81,102.03,91.91z"/>
		<path class="st3" d="M84.6,87.61c-0.24,0.49-0.33,0.89-0.21,1.28c0.76-0.25,2.81-1.06,4.97-3.19c2.42-2.39,5.46-6.95,6.45-15.23
			c-1.63,0.72-2.25-0.12-3.84-0.77c-1.66-0.67-0.61,1.6-2.21,0.98c-1.6-0.61-1.84-1.04-3.25-1.29c-1.41-0.25,0.43-1.6-0.55-2.15
			c-0.98-0.55-4.42,0.92-5.52,1.17c-1.1,0.25-1.41-1.04-2.02-0.43c-0.61,0.61-2.33,1.6-2.33,2.7c0,1.1-0.74,0.8-2.64,1.96
			c-1.9,1.17-2.02,3.5-2.02,4.29c0,0.8-1.04,2.33-1.29,2.7c-0.25,0.37,0.12,1.17,1.04,1.9c0.92,0.74,0.61,1.96,1.78,2.76
			c1.17,0.8,1.41,1.53,1.96,1.29c0.55-0.24,1.9-0.74,2.7-0.24c0.8,0.49,2.88-1.53,3.8-1.1c0.92,0.43,1.23,1.41,2.39,1.41
			C84.97,85.65,85.03,86.76,84.6,87.61z"/>
		<g>
			<defs>
				<path id="SVGID_00000166665961911718151580000003221403145469926550_" d="M102.03,91.91c-2.34,1.17-4.89,1.76-7.56,1.76
					c-1.47,0-2.98-0.18-4.51-0.54c-1.35-0.32-2.54-0.74-3.51-1.14c0.41,1.04,0.2,1.91,0.49,2.44c0.31,0.55,0.12,1.1-0.49,1.78
					c-0.61,0.67-0.55,1.59,0.06,2.76c0.61,1.17,1.17,1.78,1.17,2.82c0,1.04,0.37,1.72,0.86,2.33c0.49,0.61,1.47,1.72,1.29,2.39
					c-0.18,0.68,0.25,1.29,1.23,0.98c0.98-0.31,2.02,0.25,3.56-0.86c1.53-1.1,2.64-2.02,2.7-2.82c0.06-0.8,0.67-1.35,1.41-1.6
					c0.74-0.25,0.55-1.35,0.06-2.21c-0.49-0.86,0.37-1.1,1.9-1.6c1.53-0.49,1.96-1.23,1.72-3.5
					C102.28,93.87,102.09,92.81,102.03,91.91z"/>
			</defs>
			<clipPath id="SVGID_00000052812295812327395390000005035999382647340958_">
				<use xlink:href="#SVGID_00000166665961911718151580000003221403145469926550_"  style="overflow:visible;"/>
			</clipPath>
		</g>
		<path class="st4" d="M107.24,81.11c-0.55,0.25-2.02,1.1-2.64,0.8c-0.61-0.31-0.98-2.09-2.33-3.01c-1.35-0.92-1.66-1.66-2.15-3.07
			c-0.49-1.41-1.17-1.6-1.84-2.76c-0.33-0.56-0.61-1.34-0.94-1.93C96.23,79.65,93,84.41,90.4,86.94c-1.68,1.64-3.3,2.56-4.43,3.07
			c1.03,0.5,2.56,1.14,4.4,1.57c4.39,1.03,8.42,0.46,11.98-1.68c0.08-0.1,0.17-0.19,0.28-0.25c1.1-0.68,3.8-3.44,4.66-5.71
			C108.16,81.66,107.79,80.87,107.24,81.11z"/>
		<g>
			<defs>
				<path id="SVGID_00000117645138091245231020000016574668342842314425_" d="M84.6,87.61c-0.24,0.49-0.33,0.89-0.21,1.28
					c0.76-0.25,2.81-1.06,4.97-3.19c2.42-2.39,5.46-6.95,6.45-15.23c-1.63,0.72-2.25-0.12-3.84-0.77c-1.66-0.67-0.61,1.6-2.21,0.98
					c-1.6-0.61-1.84-1.04-3.25-1.29c-1.41-0.25,0.43-1.6-0.55-2.15c-0.98-0.55-4.42,0.92-5.52,1.17c-1.1,0.25-1.41-1.04-2.02-0.43
					c-0.61,0.61-2.33,1.6-2.33,2.7c0,1.1-0.74,0.8-2.64,1.96c-1.9,1.17-2.02,3.5-2.02,4.29c0,0.8-1.04,2.33-1.29,2.7
					c-0.25,0.37,0.12,1.17,1.04,1.9c0.92,0.74,0.61,1.96,1.78,2.76c1.17,0.8,1.41,1.53,1.96,1.29c0.55-0.24,1.9-0.74,2.7-0.24
					c0.8,0.49,2.88-1.53,3.8-1.1c0.92,0.43,1.23,1.41,2.39,1.41C84.97,85.65,85.03,86.76,84.6,87.61z"/>
			</defs>
			<clipPath id="SVGID_00000145023283919258689600000014817700392917053369_">
				<use xlink:href="#SVGID_00000117645138091245231020000016574668342842314425_"  style="overflow:visible;"/>
			</clipPath>
		</g>
		<g>
			<defs>
				<path id="SVGID_00000127014405483657711670000007791476288194628777_" d="M107.24,81.11c-0.55,0.25-2.02,1.1-2.64,0.8
					c-0.61-0.31-0.98-2.09-2.33-3.01c-1.35-0.92-1.66-1.66-2.15-3.07c-0.49-1.41-1.17-1.6-1.84-2.76c-0.33-0.56-0.61-1.34-0.94-1.93
					C96.23,79.65,93,84.41,90.4,86.94c-1.68,1.64-3.3,2.56-4.43,3.07c1.03,0.5,2.56,1.14,4.4,1.57c4.39,1.03,8.42,0.46,11.98-1.68
					c0.08-0.1,0.17-0.19,0.28-0.25c1.1-0.68,3.8-3.44,4.66-5.71C108.16,81.66,107.79,80.87,107.24,81.11z"/>
			</defs>
			<clipPath id="SVGID_00000178916975342719116250000011752857718968147876_">
				<use xlink:href="#SVGID_00000127014405483657711670000007791476288194628777_"  style="overflow:visible;"/>
			</clipPath>
		</g>
	</g>
	<g>
		<path d="M138.98,107.99c0.39-3.41,0.39-6.79,0-10.07l7.47-1.65c0.18,0.28,0.36,0.57,0.56,0.83c2.83,3.8,7.73,5.8,12.65,4.72
			c6.69-1.48,10.94-8.12,9.46-14.81c-0.72-3.24-2.65-6.01-5.45-7.8c-2.8-1.79-6.12-2.38-9.37-1.66c-5.26,1.16-9,5.52-9.64,10.59
			l-7.48,1.65c-1.03-3.15-2.4-6.15-4.1-8.95l20.79-15.52c4.25,2.83,10,2.85,14.32-0.37c5.49-4.1,6.63-11.9,2.53-17.4
			c-4.1-5.49-11.9-6.63-17.4-2.53c-4.32,3.22-5.93,8.74-4.43,13.62l-20.79,15.52c-2.2-2.43-4.69-4.6-7.42-6.48l6.99-12.64
			c5.04,0.82,10.28-1.52,12.89-6.23c1.61-2.91,1.99-6.26,1.07-9.45c-0.92-3.19-3.02-5.83-5.93-7.44c-2.9-1.61-6.26-1.99-9.45-1.07
			c-3.19,0.92-5.83,3.02-7.44,5.93c-2.44,4.41-1.91,9.67,0.93,13.47c0.2,0.27,0.42,0.52,0.64,0.77l-6.99,12.63
			c-3.4-1.47-7.04-2.53-10.88-3.09l-1.2,8.24c18.69,2.71,31.74,19.98,29.36,38.64C133.46,107.05,136.28,107.25,138.98,107.99z
			 M156.1,85.68c1.07-0.24,2.17-0.04,3.09,0.55c0.42,0.27,0.79,0.61,1.08,1c0.34,0.46,0.59,0.99,0.72,1.57
			c0.49,2.21-0.91,4.4-3.12,4.89c-1.07,0.24-2.17,0.04-3.09-0.55c-0.92-0.59-1.56-1.5-1.8-2.57
			C152.49,88.36,153.89,86.17,156.1,85.68z M127.7,46.37c-1.98-1.1-2.7-3.59-1.6-5.57c0.53-0.96,1.4-1.65,2.45-1.96
			c1.05-0.3,2.16-0.18,3.12,0.35c0.52,0.29,0.96,0.67,1.3,1.13c0.29,0.39,0.51,0.84,0.65,1.32c0.3,1.05,0.18,2.16-0.35,3.12
			C132.18,46.75,129.68,47.47,127.7,46.37z M157.46,57.43c-1.35-1.81-0.98-4.39,0.83-5.74c1.81-1.35,4.39-0.98,5.74,0.83
			s0.98,4.39-0.83,5.74C161.39,59.62,158.81,59.24,157.46,57.43z"/>
		<path d="M131.26,151.73c-3.22-4.32-8.74-5.93-13.62-4.43l-15.52-20.79c2.43-2.2,4.6-4.69,6.48-7.42l12.64,6.99
			c-0.82,5.04,1.52,10.28,6.23,12.89c2.91,1.61,6.26,1.99,9.45,1.07c3.19-0.92,5.83-3.02,7.44-5.93c1.61-2.9,1.99-6.26,1.07-9.45
			c-0.92-3.19-3.02-5.83-5.93-7.44c-4.41-2.44-9.67-1.91-13.47,0.93c-0.27,0.2-0.52,0.42-0.77,0.64l-12.63-6.99
			c1.47-3.4,2.53-7.04,3.09-10.88l-8.24-1.2c-2.71,18.69-19.98,31.74-38.64,29.36c0.38,2.79,0.18,5.61-0.56,8.31
			c3.41,0.39,6.79,0.39,10.07,0l1.65,7.47c-0.28,0.18-0.57,0.36-0.83,0.56c-3.8,2.83-5.8,7.73-4.72,12.65
			c1.48,6.69,8.12,10.94,14.81,9.46c3.24-0.72,6.01-2.65,7.8-5.45c1.79-2.8,2.38-6.12,1.66-9.37c-1.16-5.26-5.52-9-10.59-9.64
			l-1.65-7.48c3.15-1.03,6.15-2.4,8.95-4.1l15.52,20.79c-2.83,4.25-2.85,10,0.37,14.32c4.1,5.49,11.9,6.63,17.4,2.53
			C134.22,165.03,135.36,157.22,131.26,151.73z M135.48,124.52c0.96,0.53,1.65,1.4,1.96,2.45c0.3,1.05,0.18,2.16-0.35,3.12
			c-0.29,0.52-0.67,0.96-1.13,1.3c-0.39,0.29-0.84,0.51-1.32,0.65c-1.05,0.3-2.16,0.18-3.12-0.35c-1.98-1.09-2.7-3.6-1.6-5.57
			C131,124.14,133.5,123.42,135.48,124.52z M85.71,151.39c2.21-0.49,4.4,0.91,4.89,3.12c0.24,1.07,0.04,2.17-0.55,3.09
			c-0.27,0.42-0.61,0.79-1,1.08c-0.46,0.34-0.99,0.59-1.57,0.72c-2.21,0.49-4.4-0.91-4.89-3.12c-0.24-1.07-0.04-2.17,0.55-3.09
			C83.73,152.27,84.64,151.63,85.71,151.39z M118.01,161.62c-1.35-1.81-0.98-4.39,0.83-5.74c1.81-1.35,4.39-0.98,5.74,0.83
			c1.35,1.81,0.98,4.39-0.83,5.74C121.94,163.8,119.36,163.43,118.01,161.62z"/>
		<path d="M59.05,137.93c2.44-4.41,1.91-9.67-0.93-13.47c-0.2-0.27-0.42-0.52-0.64-0.77l6.99-12.63c3.4,1.47,7.04,2.53,10.88,3.09
			l1.2-8.24c-18.69-2.71-31.74-19.98-29.36-38.64c-2.79,0.38-5.61,0.18-8.31-0.56c-0.39,3.41-0.39,6.79,0,10.07l-7.47,1.65
			c-0.18-0.28-0.36-0.57-0.56-0.83c-2.83-3.8-7.73-5.8-12.65-4.72c-6.69,1.48-10.94,8.12-9.46,14.81c0.72,3.24,2.65,6.01,5.45,7.8
			c2.8,1.79,6.12,2.38,9.37,1.66c5.26-1.16,9-5.52,9.64-10.59l7.48-1.65c1.03,3.15,2.4,6.15,4.1,8.95L24,109.38
			c-4.25-2.83-10-2.85-14.32,0.37c-5.49,4.1-6.63,11.9-2.53,17.4c4.1,5.49,11.9,6.63,17.4,2.53c4.32-3.22,5.93-8.74,4.43-13.62
			l20.79-15.52c2.2,2.43,4.69,4.6,7.42,6.48l-6.99,12.64c-5.04-0.82-10.28,1.52-12.89,6.23c-1.61,2.91-1.99,6.26-1.07,9.45
			c0.92,3.19,3.02,5.83,5.93,7.44c2.9,1.61,6.26,1.99,9.45,1.07C54.8,142.94,57.44,140.83,59.05,137.93z M21.76,89.01
			c-1.07,0.24-2.17,0.04-3.09-0.55c-0.42-0.27-0.79-0.61-1.08-1C17.25,87,17,86.47,16.88,85.89c-0.49-2.21,0.91-4.4,3.12-4.89
			c1.07-0.24,2.17-0.04,3.09,0.55c0.92,0.59,1.56,1.5,1.8,2.57C25.37,86.34,23.97,88.53,21.76,89.01z M13.83,122.17
			c-1.35-1.81-0.98-4.39,0.83-5.74c1.81-1.35,4.39-0.98,5.74,0.83c1.35,1.81,0.98,4.39-0.83,5.74
			C17.75,124.35,15.18,123.98,13.83,122.17z M49.31,135.85c-1.05,0.3-2.16,0.18-3.12-0.35c-0.52-0.29-0.96-0.67-1.3-1.13
			c-0.29-0.39-0.51-0.84-0.65-1.32c-0.3-1.05-0.18-2.16,0.35-3.12c1.09-1.98,3.59-2.7,5.57-1.6c1.98,1.1,2.7,3.59,1.6,5.57
			C51.23,134.85,50.36,135.55,49.31,135.85z"/>
		<path d="M109.01,45.61c-0.38-2.79-0.18-5.61,0.56-8.31c-3.41-0.39-6.79-0.39-10.07,0l-1.65-7.47c0.28-0.18,0.57-0.36,0.83-0.56
			c3.8-2.83,5.8-7.73,4.72-12.65c-1.48-6.69-8.12-10.94-14.81-9.46c-3.24,0.72-6.01,2.65-7.8,5.45c-1.79,2.8-2.38,6.12-1.66,9.37
			c1.16,5.26,5.52,9,10.59,9.64l1.65,7.48c-3.15,1.03-6.15,2.4-8.95,4.1L66.9,22.41c2.83-4.25,2.85-10-0.37-14.32
			c-4.1-5.49-11.9-6.63-17.4-2.53s-6.63,11.9-2.53,17.4c3.22,4.32,8.74,5.93,13.62,4.43l15.52,20.79c-2.43,2.2-4.6,4.69-6.48,7.42
			l-12.64-6.99c0.82-5.04-1.52-10.28-6.23-12.89c-2.91-1.61-6.26-1.99-9.45-1.07c-3.19,0.92-5.83,3.02-7.44,5.93
			c-1.61,2.9-1.99,6.26-1.07,9.45c0.92,3.19,3.02,5.83,5.93,7.44c4.41,2.44,9.67,1.91,13.47-0.93c0.27-0.2,0.52-0.42,0.77-0.64
			l12.63,6.99c-1.47,3.4-2.53,7.04-3.09,10.88l8.24,1.2C73.09,56.27,90.35,43.22,109.01,45.61z M92.15,23.3
			c-2.21,0.49-4.4-0.91-4.89-3.12c-0.24-1.07-0.04-2.17,0.55-3.09c0.27-0.42,0.61-0.79,1-1.08c0.46-0.34,0.99-0.59,1.57-0.72
			c2.21-0.49,4.4,0.91,4.89,3.12c0.24,1.07,0.04,2.17-0.55,3.09C94.13,22.43,93.22,23.07,92.15,23.3z M53.28,17.98
			c-1.35-1.81-0.98-4.39,0.83-5.74s4.39-0.98,5.74,0.83c1.35,1.81,0.98,4.39-0.83,5.74C57.2,20.17,54.63,19.8,53.28,17.98z
			 M42.38,50.18c-0.96-0.53-1.65-1.4-1.96-2.45c-0.3-1.05-0.18-2.16,0.35-3.12c0.29-0.52,0.67-0.96,1.13-1.3
			c0.39-0.29,0.84-0.51,1.32-0.65c1.05-0.3,2.16-0.18,3.12,0.35c1.98,1.09,2.7,3.6,1.6,5.57C46.86,50.55,44.36,51.27,42.38,50.18z"
			/>
	</g>
</g>
</svg>
